<?xml version="1.0" encoding="utf-8"?>
<!-- Generator: Adobe Illustrator 16.0.0, SVG Export Plug-In . SVG Version: 6.00 Build 0)  -->
<!DOCTYPE svg PUBLIC "-//W3C//DTD SVG 1.1//EN" "http://www.w3.org/Graphics/SVG/1.1/DTD/svg11.dtd">
<svg version="1.1" id="Layer_1" xmlns="http://www.w3.org/2000/svg" xmlns:xlink="http://www.w3.org/1999/xlink" x="0px" y="0px"
	 width="800px" height="200px" viewBox="0 0 800 200" enable-background="new 0 0 800 200" xml:space="preserve">
<path fill="#E3995A" d="M799.971,16.089c-117.527,4.398-440.697,63.612-440.697,63.612l-22.861,43.851
	c0,0,329.045-15.307,463.558-22.864C799.982,95.509,799.863,19.115,799.971,16.089z"/>
<path fill="#E3995A" d="M344.177,123.704l-37.736,3.069l-94.636,3.107l-63.22-12.24c0,0-85.41-26.007-96.647-43.623
	c-2.336-3.656,20.698-2.186,32.73,0.438C96.701,77.079,100.6,89.696,100.6,89.696c-11.099-4.667-17.622-12.183-27.002-18.302
	c-7.696-5.021-19.193-8.542-20.747-13.551c-1.277-4.065,14.971-5.249,24.116-2.188c9.146,3.06,47.325,19.886,47.325,19.886
	l7.634-0.762c-8.187-4.487-15.428-6.604-25.115-10.817c-13.685-5.952-29.653-13.862-37.544-19.236
	c-0.7-4.175,19.734-5.247,32.249,1.312c11.278,5.91,34.657,8.175,51.984,16.613c12.343,6.01,92.005,14.076,92.005,14.076
	s33.214-6.167,18.46-44.243c-2.186-3.935-6.996-18.69-3.061-24.92c8.354-13.226,15.528,7.825,21.86,24.92
	c1.413,3.815,11.419,21.888,41.575,27.243c20.542,3.65,45.378,18.578,45.378,18.578"/>
<path fill="#F4A963" d="M346.392,166.878l-37.853-1.479l-94.262-8.25l-60.89-19.704c0,0-72.688-15.463-81.271-34.273
	c-1.783-3.902,20.141-3.741,20.141-3.741L109.875,104C91.08,93.157,68.97,78.143,67.166,66.707
	c-0.675-4.182,20.507,0.896,20.507,0.896l47.741,25.203l-1.408,7.883c-18.005-13.098-47.16-24.032-47.412-36.725
	c6.258-9.181,31.769,7.869,31.769,7.869l68.351,30.167c0,0,38.593,8.346,42.838,4.81c5.776-4.81,12.662-4.48,4.385-12.304
	c-55.225-36.225-24.621-44.969-11.396-33.492c10.316,8.952,35.893,20.002,35.893,20.002s59.564,10.38,77.577,20.069
	c18.009,9.688,42.286,23.847,42.286,23.847"/>
<path fill="#F4A963" d="M799.971,115.114c-123.119-8.668-466.944,4.522-466.944,4.522l-1.313,46.159l468.257,32.605
	C799.971,198.401,800.037,143.694,799.971,115.114z"/>
</svg>
